<?xml version="1.0" encoding="utf-8"?>
<!-- Generator: Adobe Illustrator 24.1.1, SVG Export Plug-In . SVG Version: 6.00 Build 0)  -->
<svg version="1.1" id="Layer_1" xmlns="http://www.w3.org/2000/svg" xmlns:xlink="http://www.w3.org/1999/xlink" x="0px" y="0px"
	 viewBox="0 0 500 146.7" style="enable-background:new 0 0 500 146.7;" xml:space="preserve">
<style type="text/css">
	.st0{display:none;}
	.st1{display:inline;fill:#192937;}
	.st2{display:inline;fill:#0FB9BA;}
	.st3{display:inline;}
	.st4{fill:#FFFFFF;}
	.st5{clip-path:url(#SVGID_2_);fill:url(#SVGID_3_);}
</style>
<g class="st0">
	<path class="st1" d="M256.3,173.4c-32.4-0.5-57-6.5-81.1-14.9c-41.9-14.7-81.3-34.5-116.8-61.5C51,91.3,44.2,84.7,37.6,78.1
		c-5.7-5.7-5.6-11.8-0.2-17.8c12.6-14,27.7-24.8,43.5-34.7C119.1,1.5,159.8-17,203.7-28.6c35.7-9.4,70.7-7.1,105.5,3.8
		c49.4,15.5,95.3,37.9,136.2,69.9c5.7,4.5,10.9,9.7,16,14.9c5.9,6.2,5.7,12.1-0.1,18.5c-12.5,13.6-27.4,24.3-42.9,34.1
		c-39.4,24.8-81.1,44.4-126.7,55C277.9,170.8,263.8,172.2,256.3,173.4z M249.7,150.2c6.2-0.8,12.4-1.3,18.5-2.6
		c49.7-10.6,77.6-63.4,58-109.4c-17.1-40.1-64.4-59.9-106-44.5c-38.4,14.2-60,52.5-51.9,91.8C175.8,122.6,210.3,149.7,249.7,150.2z
		 M437.4,68.8c-29.7-25.3-63.4-43-99.6-58.5C362,50,362,88.5,338.3,127.1C357.2,123.5,423,84.9,437.4,68.8z M61.5,68.9
		c17.2,17.4,84.3,56.5,99,58C137,88.4,137,49.9,161.3,10.3C125.1,25.9,91.3,43.5,61.5,68.9z"/>
	<path class="st1" d="M429.4-112.4c-0.9,1.6-1.9,4.9-4.1,7c-13.5,13.5-27.1,26.7-40.9,39.9c-5,4.8-12.3,4.5-16.8-0.3
		c-4.3-4.6-4.3-11.7,0.5-16.5c13.6-13.4,27.2-26.6,40.9-39.9c3.8-3.6,8.3-4.7,13.1-2.5C426.7-122.5,428.9-118.8,429.4-112.4z"/>
	<path class="st1" d="M122.3,202.9c5.5,1,9,3.3,11.1,7.7c2.1,4.4,1.2,9.4-2.5,13.2c-5.3,5.4-10.8,10.6-16.3,15.9
		c-8.3,8.1-16.5,16.3-25,24.2c-4.8,4.5-11.1,4.5-15.8,0.6c-4.3-3.7-5.4-10.1-2.4-15c0.8-1.2,1.8-2.3,2.9-3.4
		c13.1-12.8,26.1-25.6,39.4-38.2C116.2,205.8,119.5,204.6,122.3,202.9z"/>
	<path class="st1" d="M376.8,203c2.7,1.4,5.8,2.4,7.9,4.4c13.7,13,27.2,26.2,40.7,39.5c5,5,5.2,12,0.6,16.8
		c-4.6,4.8-11.7,5.1-16.8,0.2c-13.8-13.3-27.6-26.7-41.2-40.2c-3.7-3.6-4.4-8.9-2.3-13.2C367.8,206.1,371.4,203.9,376.8,203z"/>
	<path class="st1" d="M135.2-74.2c-0.9,5.4-3.1,9.1-7.6,11.1c-4.8,2.1-9.4,1.4-13.2-2.3c-9.2-8.9-18.4-17.8-27.5-26.7
		c-4.4-4.3-8.8-8.5-13.1-12.8c-5.2-5.2-5.4-12.3-0.7-17.1c4.8-4.9,11.7-4.8,17.1,0.4c13.5,13,27,26.1,40.2,39.3
		C132.7-80.2,133.7-77,135.2-74.2z"/>
	<path class="st1" d="M236.1-132.2c0-9.1,0-18.2,0-27.3c0-7.4,4.9-12.6,11.6-12.6c6.7-0.1,11.7,5.1,11.7,12.5
		c0.1,18.5,0.1,36.9,0,55.4c0,7.4-5,12.5-11.8,12.4c-6.7-0.1-11.5-5.3-11.6-12.7C236.1-113.8,236.1-123,236.1-132.2z"/>
	<path class="st1" d="M239.6,273.5c0-9.1,0-18.1,0-27.2c0-7.5,4.7-12.6,11.4-12.7c6.9-0.1,11.9,5.2,11.9,12.7c0,18.3,0,36.6,0,54.8
		c0,7.5-5.1,12.9-11.9,12.7c-6.7-0.1-11.4-5.3-11.4-12.7C239.5,291.9,239.6,282.7,239.6,273.5z"/>
	<path class="st2" d="M249.4,110.1c-22.8-0.1-41.5-18.5-41.6-40.9c0-22.6,19.1-41.2,42-40.9c22.9,0.3,41.5,18.8,41.3,41.1
		C291,91.9,272.2,110.2,249.4,110.1z M267.6,69.4c0.1-9.8-7.8-17.5-18-17.5c-10,0-18,7.4-18.2,16.9c-0.2,9.8,7.6,17.6,17.7,17.9
		C259.2,86.9,267.5,79.1,267.6,69.4z"/>
</g>
<g class="st0">
	<path class="st3" d="M254,304.2c-111.9-0.6-204.1-73-230-177.5C-7.5,0.3,72.9-128.6,200.2-156c39.9-8.6,79.2-6.9,118.2,4.8
		c7.4,2.2,11.1,8.1,9.3,14.7c-1.8,6.6-8.3,9.8-16,7.5c-45.2-13.5-90.3-13.2-134.2,3.9C104.2-96.7,58.5-43.4,44.1,33.9
		C24.3,139.7,86.8,240.4,189.4,272c113.5,34.9,234-33,263.7-148.9c9.6-37.6,8.7-75-2.4-112.2c-2.3-7.8-0.4-13.5,5.5-16.2
		c6.6-3.1,14.4,0.2,16.1,7.7c3.5,15.5,7.7,31,9.3,46.7c4.9,48.6-4.7,94.6-29.2,136.9c-35.7,61.7-88.9,99.5-158.7,113.9
		c-5.4,1.1-10.9,2.1-16.5,2.6C268.2,303.4,259.1,303.9,254,304.2z"/>
	<path class="st3" d="M250.6,233.3C171,232.9,103.1,175,90.4,96.4c-13.9-86,42.7-167.6,128.5-185.1c14.3-2.9,28.8-4.4,43.3-2.4
		c7.1,1,11.9,7.9,10.4,14.4c-1.3,5.6-6.1,9.2-12,8.6c-67.9-6.3-137,42.9-147.9,120.1c-10.4,74,42.6,145.1,116.6,156
		c75.8,11.1,144.4-37.6,158.4-113c2-10.9,1.6-22.4,1.5-33.7c-0.1-7.3,3.6-13.3,10.4-14c6.6-0.7,12.2,3.8,12.9,11
		c3.1,32.4-3.7,62.9-19.8,91c-27.2,47.5-68.4,74.9-122.6,82.4C263.6,232.7,257.1,232.8,250.6,233.3z"/>
	<path class="st2" d="M413.3-91.9c11.1,0,21.7,0.1,32.3,0c5.9-0.1,10.8,1.5,13.2,7.3c2.5,5.9-0.2,10.3-4.3,14.4
		c-22,21.9-44,43.9-65.9,65.9c-3.6,3.7-7.6,5.4-12.8,5.3c-11.6-0.2-23.2,0-34.8-0.1c-3.1,0-5.1,1-7.2,3.1
		c-24.4,24.6-49,49-73.4,73.5c-3.4,3.4-7,5.5-12,4.5c-8.5-1.8-12.1-11.7-6.7-18.5c1-1.2,2.1-2.2,3.2-3.3
		c24.2-24.2,48.3-48.3,72.5-72.4c2.1-2.1,3.1-4.2,3.1-7.2c-0.2-12.1-0.4-24.1,0.1-36.2c0.1-3.5,1.8-7.7,4.2-10.2
		c22.4-22.9,45.1-45.4,67.7-68c3.8-3.9,8.2-5.6,13.4-3.4c5.4,2.2,7.4,6.6,7.3,12.2C413.2-114.2,413.3-103.3,413.3-91.9z M390.1-98.8
		c-15.7,15.7-30.3,30.3-44.9,45c-0.6,0.6-1.4,1.5-1.4,2.3c-0.1,9.7-0.1,19.3-0.1,29.3c9.2,0,17.9,0.2,26.5-0.1
		c2-0.1,4.5-1.1,5.9-2.5c13.7-13.4,27.2-27,40.7-40.6c0.8-0.8,1.5-1.7,2.8-3.2c-6.3,0-11.6,0-17,0c-8-0.1-12.6-4.7-12.6-12.7
		C390-86.8,390.1-92.1,390.1-98.8z"/>
	<path class="st3" d="M158.1,70.7c-0.1-50.6,41-92.6,91-92.9c8-0.1,13.3,4.6,13.3,11.6c0,6.8-5.1,11.4-12.9,11.6
		c-36,0.9-65.1,28.3-68.1,64c-3,35,21.2,66.8,56.1,73.9c41.6,8.5,81.9-23.6,82.9-66.2c0.1-5.8,1.6-10.4,7.2-12.8
		c7.9-3.4,16.3,2.4,16,11.5c-0.7,29.8-12.4,54.5-36.2,72.5c-28.2,21.4-59.7,25.8-92.3,12.1c-32.6-13.7-51.3-39.1-56.3-74.2
		c-0.3-1.8-0.5-3.7-0.6-5.5C158,74.4,158.1,72.5,158.1,70.7z"/>
</g>
<g class="st0">
	<path class="st3" d="M207.9,122.8c1.6-2.5,3-4.6,4.3-6.7C237,76.4,261.7,36.6,286.6-2.9c2.7-4.3,4-8.3,3.7-13.2
		c-0.3-6.7-0.1-13.5-0.1-20.5c-19.7,0-39.1,0-58.7,0c-0.1,1.3-0.2,2.5-0.2,3.6c-0.2,8.2-5.2,13.7-13.3,13.8
		c-20.8,0.2-41.6,0.2-62.5-0.1c-2.1,0-4.8-1.8-6-3.5c-1.7-2.4-0.4-5,1.7-7.1c9.1-9.1,18.2-18.2,27.3-27.3c1-1,2-2.1,3.2-3.3
		c-9.5-9.5-18.8-18.8-28.1-28c-0.9-0.9-2.3-1.7-2.7-2.9c-0.8-2.2-1.9-5-1.2-6.8c0.6-1.6,3.6-3.2,5.6-3.3c11.5-0.3,23.1-0.2,34.6-0.2
		c8.6,0,17.2-0.1,25.9,0c2.7,0,3.7-0.6,3.8-3.5c0.2-9.5,5.3-14.1,14.9-14.2c17,0,34,0,50.9,0c1.4,0,2.9,0,4.9,0c0-2.1-0.1-3.9,0-5.7
		c0.2-3.5,2.6-5.9,5.7-6c3.3-0.1,5.8,2.4,6.1,6.1c0.1,1.2,0,2.4,0,3.6c0,35.4,0,70.8-0.1,106.2c0,4.2,0.8,7.7,3.2,11.4
		c11.7,18,22.9,36.3,34.3,54.5c45.5,72.8,91,145.6,136.5,218.5c0.8,1.2,1.6,2.4,2.2,3.8c1.6,3.6-0.5,7.5-4.4,8.1
		c-1.2,0.2-2.4,0.1-3.6,0.1c-145.5,0-291,0-436.5,0c-1.2,0-2.4,0.1-3.6-0.1c-3.9-0.6-6-4.4-4.5-8c0.5-1.1,1.1-2.1,1.8-3.1
		C69.7,202.5,111.9,135,154.2,67.5c1.4-2.2,3.3-4.3,5.4-5.5c4.7-2.6,9.7-0.6,13.1,4.8c10.8,17.3,21.6,34.6,32.5,51.9
		C205.9,119.8,206.7,121,207.9,122.8z M354.2,96.4c-1.3,1.2-2.2,2-3.2,3c-6.7,6.7-13.3,13.3-20,20c-3.9,3.9-6.7,3.9-10.5,0.1
		c-5.7-5.6-11.3-11.2-16.9-16.9c-2.4-2.4-4.4-5.2-6.8-8c-8.9,9-16.9,17-24.8,24.9c-3.9,3.9-6.6,3.8-10.5-0.1
		c-6.8-6.7-13.5-13.5-20.3-20.2c-0.9-0.9-1.8-1.7-2.9-2.7c-1.2,1.8-2,3.1-2.9,4.5c-22.1,35.3-44.1,70.6-66.2,105.8
		c-2.5,3.9-5.8,5.1-8.9,3.1c-3.1-1.9-3.5-5.4-1-9.4c7.3-11.8,14.7-23.6,22.1-35.4c0.7-1.1,1.3-2.2,1.9-3.3c-0.4,0.2-0.8,0.5-1.1,0.7
		c-6.2-6.6-12.5-13.2-18.9-20.1c-5.4,5.5-10.6,10.8-15.8,16c-4.8,4.8-7.1,4.8-11.9,0c-4.9-4.9-9.8-9.9-15-15.1
		C94.2,185.5,68.2,227.2,42,269.2c140.3,0,279.9,0,420.2,0C426.1,211.4,390.3,154.2,354.2,96.4z M266.8,107.6
		c0.3-0.2,0.5-0.3,0.7-0.5c7.4-7.4,14.8-14.8,22.2-22.2c5.3-5.3,7.5-5.3,12.8-0.1c7.7,7.7,15.3,15.3,22.7,22.8
		c7.5-7.5,14.7-14.7,22-22.1c-16.8-26.9-33.9-54.2-51.1-81.8c-17.4,27.8-34.4,55-51.3,82C252.4,93.2,259.5,100.3,266.8,107.6z
		 M290.1-48.8c0-19.8,0-39.1,0-58.5c-1.4-0.1-2.6-0.2-3.7-0.2c-16.8,0-33.6,0.1-50.5-0.1c-3.8,0-4.6,1.3-4.6,4.8
		c0.2,16.7,0.1,33.4,0.1,50.1c0,1.3,0.1,2.5,0.2,3.9C251.2-48.8,270.5-48.8,290.1-48.8z M185.1,147.2c5-5,9.9-9.9,14.8-14.8
		c-11.8-18.9-23.9-38.1-36.2-58c-12.5,19.9-24.5,39.3-36.3,58c5.1,5.1,9.8,9.9,14.6,14.7c-0.1,0.1,0.2,0,0.3-0.2
		c5.4-5.3,10.7-10.7,16.1-16c3.8-3.8,6.7-3.8,10.5,0C174.5,136.5,180,142.1,185.1,147.2z M169.2-31c1.8,0.1,2.6,0.2,3.3,0.2
		c14.3,0,28.6-0.1,42.9,0.1c3.4,0,4.2-1.1,4.2-4.3c-0.1-17-0.1-33.9-0.1-50.9c0-1.2-0.1-2.3-0.2-3.4c-16.5,0-32.8,0-49.9,0
		c8.1,8.1,15.6,15.5,23.1,23c4.8,4.8,4.8,7.2,0.1,11.9C185.1-46.9,177.5-39.4,169.2-31z"/>
	<path class="st2" d="M290.4-16.1c-0.3-6.7-0.1-13.5-0.1-20.5c-19.7,0-39.1,0-58.7,0c-0.1,1.3-0.2,2.5-0.2,3.6
		c-0.2,8.2-5.2,13.7-13.3,13.8c-20.8,0.2-41.6,0.2-62.5-0.1c-2.1,0-4.8-1.8-6-3.5c-1.7-2.4-0.4-5,1.7-7.1
		c9.1-9.1,18.2-18.2,27.3-27.3c1-1,2-2.1,3.2-3.3c-9.5-9.5-18.8-18.8-28.1-28c-0.9-0.9-2.3-1.7-2.7-2.9c-0.8-2.2-1.9-5-1.2-6.8
		c0.6-1.6,3.6-3.2,5.6-3.3c11.5-0.3,23.1-0.2,34.6-0.2c8.6,0,17.2-0.1,25.9,0c2.7,0,3.7-0.6,3.8-3.5c0.2-9.5,5.3-14.1,14.9-14.2
		c17,0,34,0,50.9,0c1.4,0,2.9,0,4.9,0c0-2.1-0.1-3.9,0-5.7c0.2-3.5,2.6-5.9,5.7-6c3.3-0.1,5.8,2.4,6.1,6.1c0.1,1.2,0,2.4,0,3.6
		c0,35.4,0,70.8-0.1,106.2C302.1-10.9,290.6-11.2,290.4-16.1z M290.1-48.8c0-19.8,0-39.1,0-58.5c-1.4-0.1-2.6-0.2-3.7-0.2
		c-16.8,0-33.6,0.1-50.5-0.1c-3.8,0-4.6,1.3-4.6,4.8c0.2,16.7,0.1,33.4,0.1,50.1c0,1.3,0.1,2.5,0.2,3.9
		C251.2-48.8,270.5-48.8,290.1-48.8z M169.2-31c1.8,0.1,2.6,0.2,3.3,0.2c14.3,0,28.6-0.1,42.9,0.1c3.4,0,4.2-1.1,4.2-4.3
		c-0.1-17-0.1-33.9-0.1-50.9c0-1.2-0.1-2.3-0.2-3.4c-16.5,0-32.8,0-49.9,0c8.1,8.1,15.6,15.5,23.1,23c4.8,4.8,4.8,7.2,0.1,11.9
		C185.1-46.9,177.5-39.4,169.2-31z"/>
</g>
<path class="st4" d="M436.1,53.7h32.7v7h-25v11.4h22.1v7h-22.1v11.8h25.3v7h-33V53.7z M360.6,53.7h7.7v22.2l21-22.2h9.5l-18.4,19
	l19.2,25.2h-9.4L375.1,78l-6.9,7.1v12.8h-7.7V53.7z M298.6,80.5L281,53.7h9.1l12.4,19.6l12.5-19.6h8.9l-17.5,26.6v17.6h-7.8V80.5z
	 M207.8,53.7h7.7v18.4h21.2V53.7h7.7v44.2h-7.7V79.3h-21.2v18.6h-7.7V53.7z"/>
<g>
	<defs>
		<path id="SVGID_1_" d="M156.8,20.3c0-4.9-4-8.8-8.8-8.8c-4.9,0-8.8,4-8.8,8.8v33.1c0,0.8,0,1.7-0.1,2.5V57
			c0,20.8-25.3,20.8-25.3,0V46.3v-9c0-4.9-4-8.8-8.8-8.8c-4.9,0-8.8,4-8.8,8.8V57c0,16.3-16.8,21.8-23.8,12.1
			c-2.1-2.9-5.5-4.8-9.4-4.8c-6.4,0-11.5,5.2-11.5,11.5s5.2,11.5,11.5,11.5c4,0,7.5-2,9.5-5c5.1-7.5,23.6-3.6,23.6,9.3v0v0v22.6
			c0,4.9,4,8.8,8.8,8.8c4.9,0,8.8-4,8.8-8.8v-9v-13c0-17.7,25.3-17.7,25.3,0v13h0v26c0,4.9,4.1,8.8,8.9,8.8c4.9,0,8.8-4,8.8-8.8
			V20.3z"/>
	</defs>
	<clipPath id="SVGID_2_">
		<use xlink:href="#SVGID_1_"  style="overflow:visible;"/>
	</clipPath>
	<linearGradient id="SVGID_3_" gradientUnits="userSpaceOnUse" x1="94.5985" y1="79.3998" x2="161.7581" y2="54.1284">
		<stop  offset="0" style="stop-color:#45B563"/>
		<stop  offset="1" style="stop-color:#0DBABC"/>
	</linearGradient>
	<rect x="51.4" y="11.5" class="st5" width="105.4" height="128.7"/>
</g>
</svg>
