<svg width="24" height="24" viewBox="0 0 24 24" fill="none" xmlns="http://www.w3.org/2000/svg">
<circle cx="12" cy="12" r="12" fill="#FEF2F2"/>
<path d="M12.8641 11.8459C12.8415 11.8233 12.8288 11.7928 12.8288 11.7609C12.8288 11.729 12.8415 11.6984 12.8641 11.6759L17.3103 7.23017C17.5915 6.94864 17.5911 6.49251 17.3096 6.21137C17.0281 5.93024 16.5719 5.93056 16.2908 6.21209L11.845 10.6559C11.8225 10.6785 11.792 10.6912 11.7601 10.6912C11.7282 10.6912 11.6976 10.6785 11.6751 10.6559L7.22936 6.21209C6.94822 5.93083 6.4923 5.93072 6.21104 6.21185C5.92977 6.49299 5.92966 6.94891 6.2108 7.23017L10.6561 11.6759C10.6786 11.6984 10.6913 11.729 10.6913 11.7609C10.6913 11.7928 10.6786 11.8233 10.6561 11.8459L6.2108 16.2921C6.02893 16.474 5.95796 16.7392 6.0246 16.9877C6.09124 17.2361 6.28537 17.4302 6.53388 17.4967C6.78238 17.5632 7.04749 17.4921 7.22936 17.3102L11.6751 12.8639C11.6976 12.8414 11.7282 12.8287 11.7601 12.8287C11.792 12.8287 11.8225 12.8414 11.845 12.8639L16.2908 17.3102C16.5719 17.5914 17.0279 17.5915 17.3091 17.3104C17.5904 17.0293 17.5905 16.5734 17.3094 16.2921L12.8641 11.8459Z" fill="#DC2626"/>
</svg>
