<svg xmlns="http://www.w3.org/2000/svg" height="512pt" version="1.1" viewBox="0 0 512 512" width="512pt">
<g id="surface1">
<path d="M 494.125 0 L 243.730469 0 C 233.964844 0 226.019531 7.945312 226.019531 17.710938 L 226.019531 93.378906 L 17.335938 93.378906 C 7.777344 93.378906 0 101.152344 0 110.710938 L 0 190.148438 C 0 199.707031 7.777344 207.484375 17.335938 207.484375 L 226.019531 207.484375 L 226.019531 494.289062 C 226.019531 504.054688 233.964844 512 243.730469 512 L 494.128906 512 C 503.894531 512 511.839844 504.054688 511.839844 494.289062 L 511.839844 17.710938 C 511.835938 7.945312 503.890625 0 494.125 0 Z M 30 123.378906 L 366.875 123.378906 C 381.792969 123.378906 393.929688 135.515625 393.929688 150.429688 C 393.929688 165.347656 381.792969 177.484375 366.875 177.484375 L 30 177.484375 Z M 481.835938 482 L 256.019531 482 L 256.019531 207.484375 L 366.875 207.484375 C 398.335938 207.484375 423.929688 181.890625 423.929688 150.429688 C 423.929688 118.972656 398.335938 93.378906 366.875 93.378906 L 256.019531 93.378906 L 256.019531 30 L 481.835938 30 Z M 481.835938 482 " 
    style=" stroke:none;fill-rule:nonzero;fill:rgb(0%,0%,0%);fill-opacity:1;" />
<path d="M 368.929688 272.035156 C 343.84375 272.035156 323.433594 292.445312 323.433594 317.53125 C 323.433594 337.359375 336.191406 354.257812 353.929688 360.472656 L 353.929688 403.351562 C 353.929688 411.636719 360.644531 418.351562 368.929688 418.351562 C 377.210938 418.351562 383.929688 411.636719 383.929688 403.351562 L 383.929688 360.472656 C 401.664062 354.257812 414.421875 337.359375 414.421875 317.527344 C 414.421875 292.445312 394.015625 272.035156 368.929688 272.035156 Z M 368.929688 333.023438 C 360.386719 333.023438 353.433594 326.074219 353.433594 317.53125 C 353.433594 308.988281 360.386719 302.035156 368.929688 302.035156 C 377.472656 302.035156 384.421875 308.988281 384.421875 317.53125 C 384.421875 326.074219 377.472656 333.023438 368.929688 333.023438 Z M 368.929688 333.023438 " style=" stroke:none;fill-rule:nonzero;fill:rgb(0%,0%,0%);fill-opacity:1;" />
</g>
</svg>